<?xml version="1.0" encoding="utf-8"?>
<!-- Generator: Adobe Illustrator 27.3.1, SVG Export Plug-In . SVG Version: 6.00 Build 0)  -->
<svg version="1.1" id="Layer_1" xmlns="http://www.w3.org/2000/svg" xmlns:xlink="http://www.w3.org/1999/xlink" x="0px"
	y="0px" viewBox="0 0 204 204" style="enable-background:new 0 0 204 204;" xml:space="preserve">
	<style type="text/css">
		.st0 {
			fill: url(#SVGID_1_);
		}

		.st1 {
			fill: #FFFFFF;
		}

		.st2 {
			font-family: 'Arial-Black';
		}

		.st3 {
			font-size: 35.709px;
		}
	</style>
	<linearGradient id="SVGID_1_" gradientUnits="userSpaceOnUse" x1="-12.4729" y1="102.4204" x2="228.0859" y2="101.5369"
		gradientTransform="matrix(1 0 0 -1 0 204)">
		<stop offset="0" style="stop-color:#AA367C" />
		<stop offset="1" style="stop-color:#4A2FBD" />
	</linearGradient>
	<path class="st0" d="M187.6,69.9c5.5-2,11.6,0.7,13.1,6.3c5.5,21.2,4.1,43.8-4.3,64.3c-9.7,23.8-28,43-51.3,53.9
	c-23.3,10.9-49.7,12.6-74.2,4.8c-24.5-7.8-45.1-24.5-57.7-46.9C0.6,130-3.2,103.7,2.7,78.7c5.9-25,20.9-46.8,42.2-61.2
	S92.1-2.7,117.4,1.2c21.9,3.3,42,13.7,57.4,29.4c4.1,4.2,3.3,10.8-1.3,14.5c-4.6,3.6-11.1,2.8-15.3-1.2c-12-11.6-27.3-19.2-44-21.8
	C94.1,18.9,73.6,23.6,56.7,35C39.8,46.4,27.9,63.7,23.2,83.5c-4.7,19.8-1.7,40.7,8.4,58.4c10,17.7,26.4,31,45.8,37.2
	c19.4,6.2,40.4,4.8,58.9-3.8c18.4-8.6,33-23.9,40.7-42.7c6.4-15.6,7.7-32.7,3.9-48.9C179.5,78,182.2,71.9,187.6,69.9z" />
	<path class="st1"
		d="M-126.1-64.6c0,4.6,3.2,8.4,8,8.4c0.6,0,1-0.1,1.3-0.2l-5.4,7.7h7.6l5.5-8.8c1.4-2.3,2.3-4.9,2.3-7.2
	c0-5.3-4.1-9.2-9.6-9.2C-122-73.9-126.1-70-126.1-64.6z M-119.8-64.8c0-1.8,1.5-3.2,3.3-3.2s3.3,1.4,3.3,3.3s-1.4,3.2-3.3,3.2
	S-119.8-63-119.8-64.8z M-97.8-58.8c0.5-0.9,1.6-1.5,2.9-1.5c1.8,0,3.2,1.3,3.2,3.1s-1.3,3.2-3.2,3.2c-1.9,0-3-1.3-3.1-2.4h-6.3
	c0.1,5,3.8,8.3,9.5,8.3c5.4,0,9.5-4,9.5-9.4c0-4.5-3.2-8.2-7.9-8.2c-1.5,0-2.9,0.4-4.1,1.2l0.5-3.2h9.8v-5.6h-14.8l-1.8,13.4
	L-97.8-58.8z M-70.9-67.7c0-3.4-2.8-6.1-6.3-6.1c-3.6,0-6.3,2.7-6.3,6.1s2.8,6.1,6.3,6.1C-73.6-61.6-70.9-64.3-70.9-67.7z
	 M-75.1-67.7c0,1.3-0.9,2.1-2.1,2.1c-1.2,0-2.1-0.9-2.1-2.1s0.9-2.1,2.1-2.1C-76-69.8-75.1-68.9-75.1-67.7z M-57.4-73.4h-5.5
	l-18.4,24.7h5.5L-57.4-73.4z M-67.7-54.5c0,3.4,2.8,6.1,6.3,6.1c3.6,0,6.3-2.7,6.3-6.1c0-3.4-2.8-6.1-6.3-6.1
	C-64.9-60.6-67.7-57.9-67.7-54.5z M-63.5-54.5c0-1.3,0.9-2.1,2.1-2.1s2.1,0.9,2.1,2.1c0,1.3-0.9,2.1-2.1,2.1S-63.5-53.2-63.5-54.5z" />
	<path class="st1" d="M121.4,96.4c0-3.4-2.8-6.1-6.3-6.1c-3.6,0-6.3,2.7-6.3,6.1s2.8,6.1,6.3,6.1C118.6,102.5,121.4,99.8,121.4,96.4z
	 M117.1,96.4c0,1.3-0.9,2.1-2.1,2.1c-1.2,0-2.1-0.9-2.1-2.1s0.9-2.1,2.1-2.1C116.2,94.3,117.1,95.1,117.1,96.4z M134.9,90.6h-5.5
	L111,115.4h5.5L134.9,90.6z M124.5,109.6c0,3.4,2.8,6.1,6.3,6.1c3.6,0,6.3-2.7,6.3-6.1c0-3.4-2.8-6.1-6.3-6.1
	C127.3,103.5,124.5,106.2,124.5,109.6z M128.7,109.6c0-1.3,0.9-2.1,2.1-2.1s2.1,0.9,2.1,2.1c0,1.3-0.9,2.1-2.1,2.1
	S128.7,110.9,128.7,109.6z" />
	<text transform="matrix(1 0 0 1 60.2661 116.7282)" class="st1 st2 st3">70</text>
</svg>